
<svg width="1440" height="600" viewBox="0 0 1440 600" fill="none" xmlns="http://www.w3.org/2000/svg">
  <g opacity="0.15">
    <path d="M-14 282L-5.2 313.2C3.5 344.3 20.8 406.7 38.2 432.8C55.5 459 72.8 449 90.2 449C107.5 449 124.8 459 142.2 449C159.5 439 176.8 409 194.2 389.3C211.5 369.7 228.8 360.3 246.2 359.7C263.5 359 280.8 367 298.2 379.7C315.5 392.3 332.8 409.7 350.2 412.3C367.5 415 384.8 403 402.2 397.3C419.5 391.7 436.8 392.3 454.2 402.5C471.5 412.7 488.8 432.3 506.2 442.2C523.5 452 540.8 452 558.2 442.2C575.5 432.3 592.8 412.7 610.2 402.5C627.5 392.3 644.8 391.7 662.2 397.3C679.5 403 696.8 415 714.2 412.3C731.5 409.7 748.8 392.3 766.2 379.7C783.5 367 800.8 359 818.2 359.7C835.5 360.3 852.8 369.7 870.2 389.3C887.5 409 904.8 439 922.2 449C939.5 459 956.8 449 974.2 449C991.5 449 1008.8 459 1026.2 432.8C1043.5 406.7 1060.8 344.3 1078.2 313.2C1095.5 282 1112.8 282 1130.2 282C1147.5 282 1164.8 282 1182.2 282C1199.5 282 1216.8 282 1234.2 282C1251.5 282 1268.8 282 1286.2 282C1303.5 282 1320.8 282 1338.2 282C1355.5 282 1372.8 282 1390.2 282C1407.5 282 1424.8 282 1433.5 282L1442.2 282L1442.2 0L1433.5 0C1424.8 0 1407.5 0 1390.2 0C1372.8 0 1355.5 0 1338.2 0C1320.8 0 1303.5 0 1286.2 0C1268.8 0 1251.5 0 1234.2 0C1216.8 0 1199.5 0 1182.2 0C1164.8 0 1147.5 0 1130.2 0C1112.8 0 1095.5 0 1078.2 0C1060.8 0 1043.5 0 1026.2 0C1008.8 0 991.5 0 974.2 0C956.8 0 939.5 0 922.2 0C904.8 0 887.5 0 870.2 0C852.8 0 835.5 0 818.2 0C800.8 0 783.5 0 766.2 0C748.8 0 731.5 0 714.2 0C696.8 0 679.5 0 662.2 0C644.8 0 627.5 0 610.2 0C592.8 0 575.5 0 558.2 0C540.8 0 523.5 0 506.2 0C488.8 0 471.5 0 454.2 0C436.8 0 419.5 0 402.2 0C384.8 0 367.5 0 350.2 0C332.8 0 315.5 0 298.2 0C280.8 0 263.5 0 246.2 0C228.8 0 211.5 0 194.2 0C176.8 0 159.5 0 142.2 0C124.8 0 107.5 0 90.2 0C72.8 0 55.5 0 38.2 0C20.8 0 3.5 0 -5.2 0L-14 0L-14 282Z" fill="#6E59A5"/>
  </g>
  <circle cx="218" cy="123" r="10" fill="#6E59A5" fill-opacity="0.15"/>
  <circle cx="400" cy="450" r="12" fill="#0EA5E9" fill-opacity="0.2"/>
  <circle cx="800" cy="270" r="8" fill="#F97316" fill-opacity="0.25"/>
  <circle cx="1180" cy="180" r="15" fill="#6E59A5" fill-opacity="0.15"/>
  <circle cx="1000" cy="390" r="10" fill="#0EA5E9" fill-opacity="0.2"/>
  <path d="M300,450Q400,400,450,500T600,550" stroke="#F97316" stroke-opacity="0.2" stroke-width="4" fill="none"/>
  <path d="M700,150Q800,100,900,150T1100,200" stroke="#6E59A5" stroke-opacity="0.15" stroke-width="4" fill="none"/>
</svg>
